<svg width="485" height="110" viewBox="0 0 485 110" fill="none" xmlns="http://www.w3.org/2000/svg">
<path d="M21.216 80.728C23.84 80.728 25.696 80.472 26.784 79.96C27.872 79.448 28.416 78.456 28.416 76.984C28.416 75.832 27.712 74.84 26.304 74.008C24.896 73.112 22.752 72.12 19.872 71.032C17.632 70.2 15.584 69.336 13.728 68.44C11.936 67.544 10.4 66.488 9.12 65.272C7.84 63.992 6.848 62.488 6.144 60.76C5.44 59.032 5.088 56.952 5.088 54.52C5.088 49.784 6.848 46.04 10.368 43.288C13.888 40.536 18.72 39.16 24.864 39.16C27.936 39.16 30.88 39.448 33.696 40.024C36.512 40.536 38.752 41.112 40.416 41.752L37.92 52.888C36.256 52.312 34.432 51.8 32.448 51.352C30.528 50.904 28.352 50.68 25.92 50.68C21.44 50.68 19.2 51.928 19.2 54.424C19.2 55 19.296 55.512 19.488 55.96C19.68 56.408 20.064 56.856 20.64 57.304C21.216 57.688 21.984 58.136 22.944 58.648C23.968 59.096 25.248 59.608 26.784 60.184C29.92 61.336 32.512 62.488 34.56 63.64C36.608 64.728 38.208 65.944 39.36 67.288C40.576 68.568 41.408 70.008 41.856 71.608C42.368 73.208 42.624 75.064 42.624 77.176C42.624 82.168 40.736 85.944 36.96 88.504C33.248 91.064 27.968 92.344 21.12 92.344C16.64 92.344 12.896 91.96 9.888 91.192C6.944 90.424 4.896 89.784 3.744 89.272L6.144 77.656C8.576 78.616 11.072 79.384 13.632 79.96C16.192 80.472 18.72 80.728 21.216 80.728ZM95.7458 65.656C95.7458 69.624 95.1698 73.272 94.0178 76.6C92.8658 79.864 91.2018 82.68 89.0258 85.048C86.8498 87.352 84.2258 89.144 81.1538 90.424C78.1458 91.704 74.7538 92.344 70.9778 92.344C67.2658 92.344 63.8738 91.704 60.8018 90.424C57.7938 89.144 55.2018 87.352 53.0258 85.048C50.8498 82.68 49.1538 79.864 47.9378 76.6C46.7218 73.272 46.1138 69.624 46.1138 65.656C46.1138 61.688 46.7218 58.072 47.9378 54.808C49.2178 51.544 50.9458 48.76 53.1218 46.456C55.3618 44.152 57.9858 42.36 60.9938 41.08C64.0658 39.8 67.3938 39.16 70.9778 39.16C74.6258 39.16 77.9538 39.8 80.9618 41.08C84.0338 42.36 86.6578 44.152 88.8338 46.456C91.0098 48.76 92.7058 51.544 93.9218 54.808C95.1378 58.072 95.7458 61.688 95.7458 65.656ZM81.1538 65.656C81.1538 61.24 80.2578 57.784 78.4658 55.288C76.7378 52.728 74.2418 51.448 70.9778 51.448C67.7138 51.448 65.1858 52.728 63.3938 55.288C61.6018 57.784 60.7058 61.24 60.7058 65.656C60.7058 70.072 61.6018 73.592 63.3938 76.216C65.1858 78.776 67.7138 80.056 70.9778 80.056C74.2418 80.056 76.7378 78.776 78.4658 76.216C80.2578 73.592 81.1538 70.072 81.1538 65.656ZM145.13 89.272C142.698 89.976 139.562 90.616 135.722 91.192C131.882 91.832 127.85 92.152 123.626 92.152C119.338 92.152 115.754 91.576 112.874 90.424C110.058 89.272 107.818 87.672 106.154 85.624C104.49 83.512 103.306 81.016 102.602 78.136C101.898 75.256 101.546 72.088 101.546 68.632V40.504H115.85V66.904C115.85 71.512 116.458 74.84 117.674 76.888C118.89 78.936 121.162 79.96 124.49 79.96C125.514 79.96 126.602 79.928 127.754 79.864C128.906 79.736 129.93 79.608 130.826 79.48V40.504H145.13V89.272ZM153.758 42.232C156.19 41.528 159.326 40.888 163.166 40.312C167.006 39.672 171.038 39.352 175.262 39.352C179.55 39.352 183.102 39.928 185.918 41.08C188.798 42.168 191.07 43.736 192.734 45.784C194.398 47.832 195.582 50.264 196.286 53.08C196.99 55.896 197.342 59.032 197.342 62.488V91H183.038V64.216C183.038 59.608 182.43 56.344 181.214 54.424C179.998 52.504 177.726 51.544 174.398 51.544C173.374 51.544 172.286 51.608 171.134 51.736C169.982 51.8 168.958 51.896 168.062 52.024V91H153.758V42.232ZM217.681 65.368C217.681 69.784 218.673 73.336 220.657 76.024C222.641 78.712 225.585 80.056 229.489 80.056C230.769 80.056 231.953 80.024 233.041 79.96C234.129 79.832 235.025 79.704 235.729 79.576V53.56C234.833 52.984 233.649 52.504 232.177 52.12C230.769 51.736 229.329 51.544 227.857 51.544C221.073 51.544 217.681 56.152 217.681 65.368ZM250.033 89.368C248.753 89.752 247.281 90.136 245.617 90.52C243.953 90.84 242.193 91.128 240.337 91.384C238.545 91.64 236.689 91.832 234.769 91.96C232.913 92.152 231.121 92.248 229.393 92.248C225.233 92.248 221.521 91.64 218.257 90.424C214.993 89.208 212.241 87.48 210.001 85.24C207.761 82.936 206.033 80.184 204.817 76.984C203.665 73.72 203.089 70.072 203.089 66.04C203.089 61.944 203.601 58.264 204.625 55C205.649 51.672 207.121 48.856 209.041 46.552C210.961 44.248 213.297 42.488 216.049 41.272C218.865 40.056 222.065 39.448 225.649 39.448C227.633 39.448 229.393 39.64 230.929 40.024C232.529 40.408 234.129 40.952 235.729 41.656V18.808L250.033 16.504V89.368ZM290.978 65.368C290.978 56.152 287.586 51.544 280.802 51.544C279.33 51.544 277.858 51.736 276.386 52.12C274.978 52.504 273.826 52.984 272.93 53.56V79.576C273.634 79.704 274.53 79.832 275.618 79.96C276.706 80.024 277.89 80.056 279.17 80.056C283.074 80.056 286.018 78.712 288.002 76.024C289.986 73.336 290.978 69.784 290.978 65.368ZM305.57 65.752C305.57 69.784 304.962 73.432 303.746 76.696C302.594 79.96 300.898 82.744 298.658 85.048C296.418 87.352 293.666 89.144 290.402 90.424C287.138 91.64 283.426 92.248 279.266 92.248C277.538 92.248 275.714 92.152 273.794 91.96C271.938 91.832 270.082 91.64 268.226 91.384C266.434 91.128 264.706 90.84 263.042 90.52C261.378 90.136 259.906 89.752 258.626 89.368V18.808L272.93 16.504V41.656C274.53 40.952 276.194 40.408 277.922 40.024C279.65 39.64 281.506 39.448 283.49 39.448C287.074 39.448 290.242 40.088 292.994 41.368C295.746 42.584 298.05 44.344 299.906 46.648C301.762 48.952 303.17 51.736 304.13 55C305.09 58.2 305.57 61.784 305.57 65.752ZM358.996 65.656C358.996 69.624 358.42 73.272 357.268 76.6C356.116 79.864 354.452 82.68 352.276 85.048C350.1 87.352 347.476 89.144 344.404 90.424C341.396 91.704 338.004 92.344 334.228 92.344C330.516 92.344 327.124 91.704 324.052 90.424C321.044 89.144 318.452 87.352 316.276 85.048C314.1 82.68 312.404 79.864 311.188 76.6C309.972 73.272 309.364 69.624 309.364 65.656C309.364 61.688 309.972 58.072 311.188 54.808C312.468 51.544 314.196 48.76 316.372 46.456C318.612 44.152 321.236 42.36 324.244 41.08C327.316 39.8 330.644 39.16 334.228 39.16C337.876 39.16 341.204 39.8 344.212 41.08C347.284 42.36 349.908 44.152 352.084 46.456C354.26 48.76 355.956 51.544 357.172 54.808C358.388 58.072 358.996 61.688 358.996 65.656ZM344.404 65.656C344.404 61.24 343.508 57.784 341.716 55.288C339.988 52.728 337.492 51.448 334.228 51.448C330.964 51.448 328.436 52.728 326.644 55.288C324.852 57.784 323.956 61.24 323.956 65.656C323.956 70.072 324.852 73.592 326.644 76.216C328.436 78.776 330.964 80.056 334.228 80.056C337.492 80.056 339.988 78.776 341.716 76.216C343.508 73.592 344.404 70.072 344.404 65.656ZM383.653 55.864L393.637 40.504H408.421L391.141 64.792C394.981 69.592 398.469 74.264 401.605 78.808C404.741 83.352 407.237 87.416 409.093 91H393.733C393.221 90.04 392.581 88.856 391.813 87.448C391.045 85.976 390.181 84.472 389.221 82.936C388.261 81.336 387.237 79.768 386.149 78.232C385.125 76.632 384.101 75.192 383.077 73.912C382.117 75.128 381.125 76.472 380.101 77.944C379.141 79.416 378.213 80.92 377.317 82.456C376.421 83.928 375.525 85.4 374.629 86.872C373.797 88.344 373.061 89.72 372.421 91H357.829C358.597 89.4 359.653 87.512 360.997 85.336C362.341 83.16 363.781 80.92 365.317 78.616C366.917 76.248 368.581 73.912 370.309 71.608C372.037 69.24 373.733 67.032 375.397 64.984C372.517 60.952 369.637 56.888 366.757 52.792C363.877 48.632 361.029 44.536 358.213 40.504H373.669L383.653 55.864Z" fill="white"/>
<rect x="415" y="24" width="70" height="70" rx="6" fill="white"/>
<g clip-path="url(#clip0_432_43)">
<mask id="mask0_432_43" style="mask-type:luminance" maskUnits="userSpaceOnUse" x="427" y="37" width="45" height="44">
<path d="M471.538 37.4615H427.564V80.5385H471.538V37.4615Z" fill="white"/>
</mask>
<g mask="url(#mask0_432_43)">
<path fill-rule="evenodd" clip-rule="evenodd" d="M427.564 37.4615L427.564 48.2308L449.551 59L427.564 69.7692L427.564 80.5385L449.551 69.7692V80.5385L471.538 69.7692V59V48.2308L449.551 37.4615V48.2308L427.564 37.4615ZM449.551 48.2308V59V69.7692L471.538 59L449.551 48.2308Z" fill="#0F0F0F"/>
</g>
</g>
<defs>
<clipPath id="clip0_432_43">
<rect width="43.9744" height="43.0769" fill="white" transform="translate(427.564 37.4615)"/>
</clipPath>
</defs>
</svg>
